<?xml version="1.0" encoding="utf-8"?>
<!-- Generator: Adobe Illustrator 26.3.1, SVG Export Plug-In . SVG Version: 6.00 Build 0)  -->
<svg version="1.1" xmlns="http://www.w3.org/2000/svg" xmlns:xlink="http://www.w3.org/1999/xlink" x="0px" y="0px"
	viewBox="0 0 200 200" style="enable-background:new 0 0 623.62 198.43;" xml:space="preserve">
	<style type="text/css">
		.st0 {
			fill: hsl(0, 0%, 85%);
		}
	</style>
	<g id="GL">
	</g>
	<g id="確定">
		<g>
			<path class="st0" d="M99.21,30.63c-37.87,0-68.58,30.71-68.58,68.59c0,37.59,30.23,68.11,67.7,68.57
       c-18.52-0.47-33.41-15.64-33.41-34.28c0-18.94,15.36-34.29,34.29-34.29c17.61,0,34.3-13.7,34.3-34.3
       C133.5,44.41,116.66,30.63,99.21,30.63z" />
			<circle class="st0" cx="99.21" cy="133.5" r="28.8" />
			<path class="st0" d="M99.21,178.77c-43.87,0-79.55-35.69-79.55-79.55c0-43.87,35.69-79.55,79.55-79.55s79.55,35.69,79.55,79.55
       C178.77,143.08,143.08,178.77,99.21,178.77z M99.21,25.15c-40.84,0-74.07,33.23-74.07,74.07c0,40.84,33.23,74.07,74.07,74.07
       s74.07-33.23,74.07-74.07C173.28,58.37,140.05,25.15,99.21,25.15z" />
			<path class="st0" d="M99.21,184.25c-46.89,0-85.04-38.15-85.04-85.04c0-46.89,38.15-85.04,85.04-85.04
       c46.89,0,85.04,38.15,85.04,85.04C184.25,146.1,146.1,184.25,99.21,184.25z M99.21,16.92c-45.38,0-82.3,36.92-82.3,82.3
       s36.92,82.3,82.3,82.3s82.3-36.92,82.3-82.3S144.59,16.92,99.21,16.92z" />
		</g>
	</g>
</svg>