<?xml version="1.0" encoding="UTF-8" standalone="no"?>
<!-- Created with Inkscape (http://www.inkscape.org/) -->

<svg
   width="103.27256mm"
   height="43.752701mm"
   viewBox="0 0 103.27256 43.752701"
   version="1.1"
   id="svg5"
   inkscape:version="1.1.2 (b8e25be833, 2022-02-05)"
   sodipodi:docname="logo_march2022.svg"
   xmlns:inkscape="http://www.inkscape.org/namespaces/inkscape"
   xmlns:sodipodi="http://sodipodi.sourceforge.net/DTD/sodipodi-0.dtd"
   xmlns="http://www.w3.org/2000/svg"
   xmlns:svg="http://www.w3.org/2000/svg">
  <sodipodi:namedview
     id="namedview7"
     pagecolor="#ffffff"
     bordercolor="#999999"
     borderopacity="1"
     inkscape:pageshadow="0"
     inkscape:pageopacity="0"
     inkscape:pagecheckerboard="true"
     inkscape:document-units="mm"
     showgrid="false"
     inkscape:zoom="3.1108586"
     inkscape:cx="150.11933"
     inkscape:cy="130.99277"
     inkscape:window-width="2560"
     inkscape:window-height="1373"
     inkscape:window-x="-9"
     inkscape:window-y="-9"
     inkscape:window-maximized="1"
     inkscape:current-layer="layer1"
     fit-margin-top="0"
     fit-margin-left="0"
     fit-margin-right="0"
     fit-margin-bottom="0">
    <inkscape:grid
       type="xygrid"
       id="grid5471"
       originx="-59.493556"
       originy="-102.77607" />
  </sodipodi:namedview>
  <defs
     id="defs2" />
  <g
     inkscape:groupmode="layer"
     id="layer2"
     inkscape:label="Guide"
     sodipodi:insensitive="true"
     style="display:none"
     transform="translate(-59.493558,-102.77607)">
    <path
       id="path469-9"
       style="fill:#20207f;fill-opacity:0.161943;fill-rule:evenodd;stroke-width:0.264583"
       d="M 103.84794,124.51546 A 22.53866,22.53866 0 0 1 81.30928,147.05412 22.53866,22.53866 0 0 1 58.77062,124.51546 22.53866,22.53866 0 0 1 81.30928,101.9768 22.53866,22.53866 0 0 1 103.84794,124.51546 Z" />
  </g>
  <g
     inkscape:label="Layer 1 copy"
     inkscape:groupmode="layer"
     id="g5355"
     style="display:none"
     transform="translate(-59.493558,-102.77607)">
    <path
       id="path5351"
       style="fill:#ffcc00;fill-rule:evenodd;stroke-width:0.264583"
       d="m 75.166711,131.44716 c -3.005837,14.79616 14.34209,14.5324 10.67341,14.91759 -1.87159,0.19651 -1.965225,0.22158 -3.954337,0.22158 -12.447758,0 -22.198454,-10.13343 -22.198454,-22.58119 0,-12.44776 10.886685,-22.25596 24.622423,-21.09278 4.708185,0.3987 9.582912,3.32719 9.502633,9.28332 -0.162173,12.03212 -16.349566,7.94893 -18.645675,19.25148 z"
       sodipodi:nodetypes="sssssss" />
    <circle
       style="fill:#ffcc00;fill-opacity:1;stroke-width:0.264583"
       id="circle5353"
       cx="86.308472"
       cy="134.42395"
       r="9.1005154" />
  </g>
  <g
     inkscape:label="Layer 1"
     inkscape:groupmode="layer"
     id="layer1"
     style="display:inline"
     transform="translate(-59.493558,-102.77607)">
    <path
       id="path469"
       style="fill:#202020;fill-rule:evenodd;stroke-width:0.264583"
       d="m 75.423993,131.3445 c -3.146402,13.20973 10.538008,14.86327 10.241149,14.90255 -2.063294,0.27305 -2.611735,0.28172 -4.600847,0.28172 -12.447758,0 -21.570737,-10.11839 -21.570737,-22.56615 0,-12.44776 10.886685,-22.25596 24.622423,-21.09278 4.708185,0.3987 9.582912,3.32719 9.502633,9.28332 -0.162173,12.03212 -15.613998,8.35695 -18.194621,19.19134 z"
       sodipodi:nodetypes="sssssss" />
    <circle
       style="fill:#202020;fill-opacity:1;stroke-width:0.264583"
       id="path4273"
       cx="86.64386"
       cy="134.9106"
       r="9.1005154" />
    <g
       aria-label="CYMATIC
SYSTEMS"
       id="text7079"
       style="font-weight:300;font-size:14.1111px;line-height:1.25;font-family:Montserrat;-inkscape-font-specification:'Montserrat Light';stroke-width:0.264583">
      <path
         d="m 104.47318,120.92881 c 1.397,0 2.65288,-0.46567 3.51366,-1.38289 l -0.45155,-0.46567 c -0.84667,0.83256 -1.87678,1.18534 -3.03389,1.18534 -2.52589,0 -4.43089,-1.86267 -4.43089,-4.34622 0,-2.48356 1.905,-4.34622 4.43089,-4.34622 1.15711,0 2.18722,0.33867 3.03389,1.17122 l 0.45155,-0.46567 c -0.86078,-0.91722 -2.11666,-1.36877 -3.51366,-1.36877 -2.93511,0 -5.122332,2.13077 -5.122332,5.00944 0,2.87866 2.187222,5.00944 5.122332,5.00944 z"
         id="path3387" />
      <path
         d="m 117.18727,110.98048 h -0.74789 l -3.57011,5.81378 -3.57011,-5.81378 h -0.79022 l 3.97933,6.477 v 3.40077 h 0.71967 v -3.40077 z"
         id="path3389" />
      <path
         d="m 128.78659,120.85825 -0.0141,-9.87777 h -0.59267 l -4.41677,7.63411 -4.41678,-7.63411 h -0.60677 v 9.87777 h 0.70555 v -8.42432 l 4.13455,7.11199 h 0.35278 l 4.13455,-7.14022 0.0141,8.45255 z"
         id="path3391" />
      <path
         d="m 139.6098,120.85825 h 0.77611 l -4.54378,-9.87777 h -0.71966 l -4.54378,9.87777 h 0.77611 l 1.25589,-2.77988 h 5.72911 z m -6.71689,-3.38666 2.58233,-5.70089 2.59645,5.70089 z"
         id="path3393" />
      <path
         d="m 143.57502,120.85825 h 0.71966 v -9.22866 h 3.556 v -0.64911 h -7.83166 v 0.64911 h 3.556 z"
         id="path3395" />
      <path
         d="m 149.62867,120.85825 h 0.71967 v -9.87777 h -0.71967 z"
         id="path3397" />
      <path
         d="m 157.96834,120.92881 c 1.397,0 2.65288,-0.46567 3.51366,-1.38289 l -0.45155,-0.46567 c -0.84667,0.83256 -1.87678,1.18534 -3.03389,1.18534 -2.52589,0 -4.43089,-1.86267 -4.43089,-4.34622 0,-2.48356 1.905,-4.34622 4.43089,-4.34622 1.15711,0 2.18722,0.33867 3.03389,1.17122 l 0.45155,-0.46567 c -0.86078,-0.91722 -2.11666,-1.36877 -3.51366,-1.36877 -2.93511,0 -5.12233,2.13077 -5.12233,5.00944 0,2.87866 2.18722,5.00944 5.12233,5.00944 z"
         id="path3399" />
      <path
         d="m 102.89273,138.56768 c 2.44122,0 3.556,-1.21355 3.556,-2.61055 0,-3.58422 -6.16655,-1.83444 -6.16655,-4.79777 0,-1.08656 0.86078,-1.97556 2.77989,-1.97556 0.889,0 1.89088,0.26811 2.70933,0.83256 l 0.26811,-0.57856 c -0.762,-0.55033 -1.89089,-0.889 -2.97744,-0.889 -2.42711,0 -3.499555,1.22767 -3.499555,2.62467 0,3.64066 6.166555,1.86266 6.166555,4.82599 0,1.07245 -0.87489,1.93322 -2.85045,1.93322 -1.32644,0 -2.58233,-0.53622 -3.259661,-1.24177 l -0.324555,0.53622 c 0.719666,0.79022 2.130776,1.34055 3.598326,1.34055 z"
         id="path3401" />
      <path
         d="m 115.70561,128.61936 h -0.74789 l -3.57011,5.81377 -3.5701,-5.81377 h -0.79023 l 3.97933,6.47699 v 3.40078 h 0.71967 v -3.40078 z"
         id="path3403" />
      <path
         d="m 119.88251,138.56768 c 2.44122,0 3.55599,-1.21355 3.55599,-2.61055 0,-3.58422 -6.16655,-1.83444 -6.16655,-4.79777 0,-1.08656 0.86078,-1.97556 2.77989,-1.97556 0.889,0 1.89089,0.26811 2.70933,0.83256 l 0.26811,-0.57856 c -0.762,-0.55033 -1.89089,-0.889 -2.97744,-0.889 -2.42711,0 -3.49955,1.22767 -3.49955,2.62467 0,3.64066 6.16655,1.86266 6.16655,4.82599 0,1.07245 -0.87489,1.93322 -2.85045,1.93322 -1.32644,0 -2.58233,-0.53622 -3.25966,-1.24177 l -0.32456,0.53622 c 0.71967,0.79022 2.13078,1.34055 3.59834,1.34055 z"
         id="path3405" />
      <path
         d="m 127.62949,138.49713 h 0.71966 v -9.22866 h 3.556 v -0.64911 h -7.83166 v 0.64911 h 3.556 z"
         id="path3407" />
      <path
         d="m 134.40281,137.84802 v -4.04989 h 5.26344 v -0.635 h -5.26344 v -3.89466 h 5.88433 v -0.64911 h -6.604 v 9.87777 h 6.81567 v -0.64911 z"
         id="path3409" />
      <path
         d="m 153.17058,138.49713 -0.0141,-9.87777 h -0.59267 l -4.41677,7.6341 -4.41677,-7.6341 h -0.60678 v 9.87777 h 0.70555 v -8.42433 l 4.13456,7.112 h 0.35277 l 4.13456,-7.14022 0.0141,8.45255 z"
         id="path3411" />
      <path
         d="m 159.21012,138.56768 c 2.44122,0 3.556,-1.21355 3.556,-2.61055 0,-3.58422 -6.16655,-1.83444 -6.16655,-4.79777 0,-1.08656 0.86078,-1.97556 2.77989,-1.97556 0.889,0 1.89089,0.26811 2.70933,0.83256 l 0.26811,-0.57856 c -0.762,-0.55033 -1.89089,-0.889 -2.97744,-0.889 -2.42711,0 -3.49955,1.22767 -3.49955,2.62467 0,3.64066 6.16655,1.86266 6.16655,4.82599 0,1.07245 -0.87489,1.93322 -2.85045,1.93322 -1.32644,0 -2.58233,-0.53622 -3.25966,-1.24177 l -0.32456,0.53622 c 0.71967,0.79022 2.13078,1.34055 3.59833,1.34055 z"
         id="path3413" />
    </g>
  </g>
</svg>
