<svg width="110" height="124" viewBox="0 0 110 124" fill="none" xmlns="http://www.w3.org/2000/svg">
<path d="M54.6035 123.63L104.571 94.783L85.511 83.7079L65.9362 95.0406C65.1636 95.5557 64.3909 95.0406 64.3909 94.0104V67.2239C64.3909 66.4512 64.906 65.6785 65.4211 65.421L88.6017 52.0278C89.3744 51.5126 90.1471 52.0278 90.1471 53.058V75.7235L109.207 86.7986V28.8472L54.6035 60.5273V123.63Z" fill="black"/>
<path d="M59.4968 0V22.1503L79.0715 33.4831C79.8442 33.9982 79.8442 35.0284 79.0715 35.286L55.891 48.6792C55.1183 49.1943 54.3456 48.9368 53.8305 48.6792L30.6499 35.286C29.8772 35.0284 29.8772 33.7406 30.6499 33.4831L50.2246 22.1503V0L0 28.8469L54.6031 60.5271L109.206 28.8469L59.4968 0Z" fill="black"/>
<path d="M43.528 95.0406L23.9533 83.7079L4.89368 94.783L54.8607 123.63V60.5273L0 28.8472V86.5411L19.0596 75.4659V52.8004C19.0596 52.0278 20.0898 51.5126 20.605 51.7702L43.7855 65.1634C44.5582 65.6785 44.8158 66.1937 44.8158 66.9663V93.7528C45.0734 94.7831 44.3007 95.5557 43.528 95.0406Z" fill="black"/>
</svg>
