<svg width="133" height="133" viewBox="0 0 133 133" fill="none" xmlns="http://www.w3.org/2000/svg">
<path fill-rule="evenodd" clip-rule="evenodd" d="M104.543 75.7229C103.439 81.0429 98.5307 94.6992 82.8755 102.093L76.5897 95.0238L65.9814 105.688C59.9454 105.607 54.01 104.131 48.6388 101.376C43.2677 98.6214 38.6064 94.6617 35.0193 89.8067C36.1459 90.1578 37.3096 90.377 38.4868 90.4598C40.2245 90.4915 42.1047 89.8542 42.1047 86.9369V58.1598C42.1291 57.4201 41.9803 56.6849 41.6702 56.0129C41.3601 55.3409 40.8972 54.7506 40.3185 54.2892C39.7399 53.8278 39.0614 53.508 38.3372 53.3553C37.613 53.2026 36.8631 53.2213 36.1474 53.4098C31.2351 54.5419 27.3124 66.7969 27.3124 66.7969C27.2573 61.1388 28.4352 55.5365 30.7641 50.3797C33.0931 45.2228 36.5172 40.635 40.7984 36.9352C46.4335 32.0611 53.3315 28.879 60.697 27.7559C55.3334 30.8117 52.3211 35.7952 52.3211 39.9752C52.3211 46.7044 56.3745 45.889 57.5739 44.8994V83.7386C57.7782 84.2258 58.0443 84.6847 58.3655 85.1042C58.9014 85.8454 59.6067 86.4477 60.4227 86.8608C61.2386 87.2739 62.1416 87.486 63.0561 87.4792C67.1134 87.4792 72.378 82.8479 72.378 82.8479V51.4109C72.378 48.2125 69.9674 44.3492 67.5528 43.0232C67.5528 43.0232 72.0218 42.2315 75.4695 44.8717C76.1172 44.0805 76.8055 43.3234 77.5318 42.6036C85.5791 34.7067 93.1593 32.4584 99.4728 31.3342C99.4728 31.3342 87.9936 40.3552 87.9936 52.4598C87.9936 61.4611 88.2272 83.414 88.2272 83.414C92.4864 87.5267 98.8197 81.5852 104.543 75.7229Z" fill="black"/>
<path fill-rule="evenodd" clip-rule="evenodd" d="M66.5001 2.47803C53.8378 2.47803 41.4598 6.23286 30.9314 13.2677C20.403 20.3025 12.1971 30.3014 7.35145 41.9999C2.50577 53.6984 1.23792 66.5711 3.70822 78.9902C6.17853 91.4093 12.276 102.817 21.2297 111.771C30.1833 120.724 41.591 126.822 54.01 129.292C66.4291 131.762 79.3018 130.494 91.0003 125.649C102.699 120.803 112.698 112.597 119.733 102.069C126.767 91.5405 130.522 79.1625 130.522 66.5001C130.522 49.5204 123.777 33.2361 111.771 21.2297C99.7641 9.22319 83.4798 2.47803 66.5001 2.47803ZM66.5001 127.957C54.3441 127.957 42.4611 124.352 32.3538 117.599C22.2465 110.845 14.3689 101.246 9.71716 90.0154C5.06544 78.7846 3.84854 66.4266 6.22034 54.5042C8.59215 42.5819 14.4461 31.6306 23.042 23.0352C31.6379 14.4399 42.5896 8.58663 54.5121 6.21558C66.4346 3.84454 78.7925 5.06224 90.023 9.71469C101.253 14.3671 110.852 22.2454 117.605 32.3531C124.358 42.4608 127.962 54.3441 127.961 66.5001C127.961 82.8006 121.486 98.4334 109.96 109.96C98.4335 121.486 82.8006 127.961 66.5001 127.961V127.957Z" fill="black"/>
</svg>
