<?xml version="1.0" encoding="utf-8"?>
<svg width="130" height="130" viewBox="0 0 130 130" fill="none" xmlns="http://www.w3.org/2000/svg">
<path d="M56.8426 76.8163C56.8972 78.4617 55.8164 79.9269 54.2281 80.3621C49.4496 81.6702 45.0496 83.8143 40.9839 86.7559C37.7797 89.074 34.563 91.3851 31.237 93.5191C28.902 95.0169 26.3943 96.1926 23.4257 95.7806C19.4974 95.2355 16.7505 92.7485 15.6929 88.5113C15.3041 86.955 14.9587 85.3731 14.7779 83.7823C14.4827 81.1854 14.3389 78.5716 14.1304 75.9647C14.3313 64.4946 17.2968 53.9068 23.8458 44.4237C28.0504 38.3363 33.9362 35.07 41.247 34.322C43.8238 34.0589 46.3553 34.0928 48.8511 34.359C50.9317 34.5807 52.2505 36.5414 52.0125 38.6202C51.988 38.8318 51.9754 39.0485 51.9754 39.2689C51.9754 39.3945 51.9805 39.5176 51.9886 39.6413C51.9698 40.3723 51.9566 40.7862 51.6828 41.6843C51.4592 42.419 50.8224 43.6412 49.1424 43.8848H42.6946C40.6447 43.8848 38.983 45.9516 38.983 48.5008C38.983 51.0499 40.6447 53.1167 42.6946 53.1167H59.545C61.2262 53.3598 61.8642 54.5825 62.0878 55.3179C62.3754 56.2637 62.3748 56.6719 62.3962 57.4815C62.3924 57.5644 62.3905 57.6485 62.3905 57.7327C62.3905 60.2818 64.0523 62.348 66.1027 62.348H68.4264C70.4763 62.348 72.1386 64.4154 72.1386 66.9639C72.1386 69.5137 70.4763 71.5805 68.4264 71.5805H60.5341C58.4842 71.5805 56.8219 73.6473 56.8219 76.1964L56.8426 76.8163Z" fill="black"/>
<path d="M107.875 46.7324C102.633 37.9571 94.8968 33.9353 84.8089 34.1438C83.6395 34.1677 82.4802 34.2443 81.3303 34.3674C80.3022 34.4773 79.7031 35.636 80.2382 36.5202C80.7004 37.2858 80.9748 38.236 80.9748 39.2691C80.9748 41.8182 79.3131 43.885 77.262 43.885H66.1253C64.0755 43.885 62.4131 45.9518 62.4131 48.5009C62.4131 51.0501 64.0755 53.1169 66.1253 53.1169H74.684C76.6572 53.1169 78.2699 55.0311 78.3886 57.4471L78.3968 57.4377C78.4483 58.656 78.3767 59.014 78.7234 60.1513C78.9457 60.883 79.5769 62.095 81.2361 62.3481H90.4617C92.5122 62.3481 94.1739 64.4156 94.1739 66.9641C94.1739 69.5138 92.5122 71.5807 90.4617 71.5807H75.7981C74.0157 71.776 73.3507 73.0439 73.1208 73.7988C72.8483 74.6944 72.8344 75.1082 72.8162 75.8374C72.8231 75.9561 72.8282 76.0754 72.8282 76.1966C72.8282 76.4107 72.8162 76.6218 72.7936 76.8284C72.6171 78.4204 73.7884 79.8247 75.3415 80.2172C80.5195 81.526 85.3477 83.8842 89.8563 87.2566C93.132 89.7065 96.5623 91.9649 100.042 94.1159C101.394 94.9518 103.045 95.5923 104.613 95.7349C109.658 96.194 113.19 93.5174 114.465 88.5522C115.37 85.0259 115.779 81.4286 115.874 77.7918C116.163 66.6771 113.603 56.3217 107.875 46.7324Z" fill="black"/>
</svg>
