<?xml version="1.0" encoding="utf-8"?>
<svg width="312" height="142" viewBox="0 0 312 142" fill="none" xmlns="http://www.w3.org/2000/svg">
<g clip-path="url(#clip0_685_390)">
<path fill-rule="evenodd" clip-rule="evenodd" d="M185.508 60.4502C185.508 64.1216 185.296 78.4904 185.296 78.4904C184.239 83.8707 178.422 85.0312 175.778 80.7058C175.686 80.5723 175.57 80.458 175.434 80.3698C175.298 80.2815 175.146 80.2209 174.987 80.1914C174.828 80.162 174.664 80.1644 174.506 80.1983C174.347 80.2323 174.197 80.2972 174.064 80.3893C169.661 82.9657 164.527 84.0187 159.462 83.3847C154.396 82.7506 149.683 80.465 146.054 76.8832C142.425 73.3014 140.084 68.624 139.395 63.5782C138.707 58.5325 139.708 53.401 142.245 48.9817C144.781 44.5623 148.71 41.1026 153.421 39.1404C158.132 37.1783 163.361 36.8236 168.295 38.1315C173.228 39.4394 177.591 42.3367 180.704 46.3728C183.817 50.409 185.505 55.3579 185.508 60.4502ZM174.931 60.5557C174.931 63.9133 173.594 67.1334 171.214 69.5075C168.834 71.8817 165.606 73.2155 162.24 73.2155C158.874 73.2155 155.646 71.8817 153.266 69.5075C150.886 67.1334 149.548 63.9133 149.548 60.5557C149.548 57.1982 150.886 53.9781 153.266 51.604C155.646 49.2298 158.874 47.896 162.24 47.896C165.606 47.896 168.834 49.2298 171.214 51.604C173.594 53.9781 174.931 57.1982 174.931 60.5557Z" fill="black"/>
<path d="M189.209 78.385C189.209 85.3479 199.362 84.6094 199.362 78.385C199.362 78.385 199.151 62.2439 199.574 58.5514C200.843 52.2216 204.439 48.3182 212.266 47.6852C218.336 47.1999 219.775 38.6124 212.266 37.6629C199.786 37.3464 190.267 46.9467 189.209 58.5514C188.998 65.0923 189.209 78.385 189.209 78.385Z" fill="black"/>
<path fill-rule="evenodd" clip-rule="evenodd" d="M262.08 60.4502V79.271C262.207 83.4065 262.44 93.26 253.831 100.012C237.543 113.621 219.352 100.223 217.66 91.783C216.285 85.6642 223.857 83.1322 226.755 87.6686C230.457 93.471 235.491 96.0662 241.139 95.2434C246.639 94.4416 251.504 90.0107 251.504 80.7058C251.504 80.1783 251.038 79.9673 250.467 80.2838C247.411 82.0736 243.982 83.1364 240.446 83.3896C236.911 83.6429 233.365 83.0797 230.083 81.7439C226.802 80.408 223.873 78.3355 221.525 75.6874C219.177 73.0392 217.472 69.8867 216.544 66.4747C215.615 63.0627 215.488 59.4831 216.172 56.0141C216.855 52.545 218.332 49.2799 220.486 46.4724C222.64 43.6648 225.414 41.3905 228.592 39.826C231.771 38.2615 235.268 37.449 238.812 37.4517C251.546 37.4517 262.08 47.7483 262.08 60.4502ZM238.812 73.0044C242.178 73.0044 245.406 71.6707 247.787 69.2965C250.167 66.9223 251.504 63.7023 251.504 60.3447C251.504 56.9871 250.167 53.7671 247.787 51.3929C245.406 49.0188 242.178 47.685 238.812 47.685C235.446 47.685 232.218 49.0188 229.838 51.3929C227.458 53.7671 226.121 56.9871 226.121 60.3447C226.121 63.7023 227.458 66.9223 229.838 69.2965C232.218 71.6707 235.446 73.0044 238.812 73.0044ZM288.838 37.3462C294.981 37.3462 300.872 39.7804 305.216 44.1132C309.56 48.446 312 54.3226 312 60.4502C312 66.5778 309.56 72.4544 305.216 76.7872C300.872 81.12 294.981 83.5542 288.838 83.5542C282.695 83.5542 276.804 81.12 272.46 76.7872C268.116 72.4544 265.676 66.5778 265.676 60.4502C265.676 54.3226 268.116 48.446 272.46 44.1132C276.804 39.7804 282.695 37.3462 288.838 37.3462ZM301.424 60.5557C301.424 63.9133 300.087 67.1333 297.707 69.5075C295.326 71.8816 292.098 73.2154 288.732 73.2154C285.366 73.2154 282.138 71.8816 279.758 69.5075C277.378 67.1333 276.041 63.9133 276.041 60.5557C276.041 57.1981 277.378 53.9781 279.758 51.6039C282.138 49.2298 285.366 47.896 288.732 47.896C292.098 47.896 295.326 49.2298 297.707 51.6039C300.087 53.9781 301.424 57.1981 301.424 60.5557Z" fill="black"/>
<path d="M41.882 14.0313C41.882 14.3596 41.8171 14.6847 41.6912 14.9881C41.5652 15.2914 41.3806 15.5671 41.1478 15.7992C40.915 16.0314 40.6387 16.2156 40.3346 16.3412C40.0305 16.4669 39.7046 16.5315 39.3754 16.5315C39.0462 16.5315 38.7203 16.4669 38.4162 16.3412C38.112 16.2156 37.8357 16.0314 37.603 15.7992C37.3702 15.5671 37.1856 15.2914 37.0596 14.9881C36.9336 14.6847 36.8688 14.3596 36.8688 14.0313C36.8688 13.3709 37.1318 12.7377 37.5999 12.2707C38.068 11.8038 38.7028 11.5415 39.3648 11.5415C40.0268 11.5415 40.6617 11.8038 41.1297 12.2707C41.5978 12.7377 41.8608 13.3709 41.8608 14.0313H41.882ZM21.9563 79.2711C21.7759 79.4089 21.5486 79.4706 21.3232 79.443C21.0977 79.4153 20.8921 79.3006 20.7506 79.1234C3.06705 56.6101 13.326 27.4928 33.294 16.099C33.3912 16.0169 33.5052 15.9572 33.6281 15.9241C33.751 15.8909 33.8797 15.8852 34.0051 15.9072C34.1304 15.9293 34.2494 15.9786 34.3535 16.0516C34.4576 16.1247 34.5443 16.2197 34.6075 16.33C34.6707 16.4402 34.7087 16.563 34.719 16.6895C34.7292 16.8161 34.7114 16.9434 34.6668 17.0623C34.6222 17.1812 34.5519 17.2889 34.4608 17.3777C34.3698 17.4665 34.2603 17.5342 34.1401 17.576C14.9548 28.5477 5.1823 56.5047 22.1043 78.0684C22.1754 78.1564 22.2281 78.2577 22.2592 78.3664C22.2903 78.475 22.2992 78.5888 22.2854 78.701C22.2716 78.8132 22.2354 78.9214 22.1788 79.0193C22.1223 79.1173 22.0466 79.2029 21.9563 79.2711ZM37.2284 62.1171C38.1709 62.1171 39.0748 61.7437 39.7412 61.0789C40.4076 60.4141 40.782 59.5125 40.782 58.5724C40.782 57.6323 40.4076 56.7307 39.7412 56.0659C39.0748 55.4011 38.1709 55.0277 37.2284 55.0277C36.2859 55.0277 35.382 55.4011 34.7156 56.0659C34.0492 56.7307 33.6748 57.6323 33.6748 58.5724C33.6748 59.5125 34.0492 60.4141 34.7156 61.0789C35.382 61.7437 36.2859 62.1171 37.2284 62.1171ZM72.0243 62.1171C72.9668 62.1171 73.8707 61.7437 74.5371 61.0789C75.2036 60.4141 75.578 59.5125 75.578 58.5724C75.578 57.6323 75.2036 56.7307 74.5371 56.0659C73.8707 55.4011 72.9668 55.0277 72.0243 55.0277C71.0819 55.0277 70.178 55.4011 69.5115 56.0659C68.8451 56.7307 68.4707 57.6323 68.4707 58.5724C68.4707 59.5125 68.8451 60.4141 69.5115 61.0789C70.178 61.7437 71.0819 62.1171 72.0243 62.1171Z" fill="black"/>
<path fill-rule="evenodd" clip-rule="evenodd" d="M3.23641 65.1133C2.9281 65.3308 2.56561 65.4592 2.18886 65.4843C1.81211 65.5095 1.4357 65.4305 1.10108 65.256C0.766465 65.0814 0.486619 64.8182 0.292358 64.4952C0.098097 64.1722 -0.00304463 63.802 6.98156e-05 63.4254V43.2542C0.00474902 42.8877 0.108007 42.5292 0.299056 42.2161C0.490106 41.903 0.761936 41.6469 1.08615 41.4744C1.41036 41.3019 1.77506 41.2194 2.14214 41.2356C2.50923 41.2518 2.86523 41.3659 3.17295 41.5662C5.83405 29.7811 12.4345 19.2493 21.8899 11.701C31.3453 4.15262 43.0933 0.0366698 55.204 0.0293068C67.3147 0.0219437 79.0677 4.1236 88.5324 11.6604C97.997 19.1973 104.61 29.7211 107.286 41.5029C107.598 41.3153 107.956 41.2143 108.32 41.2102C108.685 41.2061 109.045 41.2991 109.361 41.4797C109.678 41.6603 109.941 41.9219 110.123 42.2375C110.304 42.5531 110.398 42.9114 110.395 43.2753V63.4254C110.398 63.7955 110.3 64.1594 110.112 64.4785C109.924 64.7975 109.653 65.0598 109.328 65.2373C109.002 65.4148 108.634 65.5009 108.264 65.4866C107.893 65.4722 107.533 65.3578 107.222 65.1555C105.393 73.058 101.781 80.4401 96.66 86.7399C91.5393 93.0397 85.0453 98.0913 77.6722 101.51L77.651 101.869C78.588 103.368 79.8446 104.643 81.3316 105.603C83.6025 106.769 86.0832 107.472 88.6292 107.671C88.6292 107.671 85.266 109.359 81.1624 108.979C78.5818 108.768 77.4818 109.401 77.0799 110.667L77.3549 106.511L77.0799 110.646C76.6569 120.078 76.1492 125.627 75.98 127.568L75.9165 128.37V128.581C75.8319 129.108 75.7473 129.931 77.8203 130.775C78.9837 131.26 80.9297 131.809 82.6007 132.273C84.2929 132.759 85.689 133.159 85.689 133.307C85.689 133.602 76.4031 133.307 76.4031 133.307C71.0726 133.307 71.0726 129.34 71.0726 128.37C71.0726 127.399 69.6342 110.815 69.6342 110.815L69.1477 132.231C69.1477 133.202 69.6342 134.636 73.0186 135.607C73.0186 135.607 80.422 136.725 80.422 137.126C80.422 137.548 71.5591 137.126 71.5591 137.126C64.8326 137.126 64.8326 133.202 64.8326 133.202L63.3731 115.647C63.3731 115.647 62.8866 133.202 62.8866 135.607C62.8866 137.506 63.225 138.941 68.5132 139.911C69.5285 140.207 70.9668 140.502 72.3206 140.797C74.3724 141.219 76.2127 141.641 76.2127 141.852C76.2127 142.19 64.4519 141.852 64.4519 141.852C58.1696 141.367 57.5773 137 57.5773 137L55.187 128.285L52.818 137.021C52.818 137.021 51.8449 141.367 45.5415 141.852C45.5415 141.852 34.8806 142.19 34.8806 141.852C34.8806 141.641 36.4247 141.262 38.265 140.84C39.4707 140.544 40.8033 140.228 41.8609 139.911C45.5415 138.835 47.4875 137.506 47.4875 135.607C47.4875 133.202 47.001 115.647 47.001 115.647L45.5415 133.202C45.5415 133.202 45.5415 137.506 38.815 137.506C38.815 137.506 29.2117 137.527 29.2117 137.126C29.2117 136.704 37.3132 135.607 37.3132 135.607C40.6976 134.636 41.1841 133.202 41.1841 132.231L40.7187 110.815C40.7187 110.815 39.238 127.399 39.238 128.37C39.238 129.34 39.238 133.687 33.9499 133.687C33.9499 133.687 24.9812 133.244 24.9812 132.927C24.9812 132.78 26.1023 132.505 27.5407 132.168C29.1906 131.788 31.2635 131.303 32.5327 130.775C34.5845 129.931 34.4999 129.087 34.4364 128.581V128.37L33.2519 110.836C32.85 109.612 31.7712 108.937 29.1906 109.148C26.6241 109.345 24.0492 108.895 21.7026 107.84C24.2471 107.647 26.7277 106.951 29.0002 105.793C30.423 104.892 31.5485 103.593 32.2365 102.059L32.2154 101.215C24.9777 97.7536 18.6143 92.711 13.5976 86.4613C8.58084 80.2115 5.0395 72.915 3.23641 65.1133ZM77.8414 98.6194L78.0741 94.2307C78.4548 87.0991 78.7933 80.8958 79.0894 73.6798C81.4665 72.4587 83.4707 70.6226 84.8922 68.3637C86.3137 66.1049 87.1003 63.5063 87.1695 60.8402C87.2387 58.174 86.588 55.5384 85.2855 53.2091C83.9831 50.8799 82.0768 48.9428 79.7663 47.6007V47.3264C79.7663 33.8649 69.4439 22.1758 54.9121 22.1758C40.3591 22.1758 30.7136 34.308 30.7136 47.3053V47.3475C28.2764 48.6542 26.2518 50.6115 24.8661 53.0005C23.4805 55.3895 22.7885 58.1158 22.8675 60.8747C22.9465 63.6336 23.7934 66.3161 25.3136 68.6222C26.8337 70.9284 28.9671 72.7672 31.4751 73.933L32.1519 98.3451C21.9702 93.1558 13.8409 84.6925 9.07853 74.3237C4.31613 63.955 3.19907 52.287 5.90798 41.2066C8.61689 30.1262 14.9934 20.2811 24.0064 13.2632C33.0194 6.24543 44.142 2.46521 55.5756 2.53385C67.0092 2.60249 78.0853 6.51598 87.013 13.6415C95.9407 20.767 102.198 30.688 104.773 41.8001C107.348 52.9123 106.09 64.566 101.203 74.8768C96.3158 85.1876 88.085 93.5527 77.8414 98.6194ZM64.0077 83.892C63.8807 89.2723 61.6174 97.2058 54.6371 97.2058C47.4452 97.2058 45.6684 88.2385 45.6684 83.4067C45.6684 83.4067 48.8413 87.8798 54.6371 87.8798C60.4329 87.8798 64.0077 83.4067 64.0077 83.4067V83.892ZM37.7785 72.1395C39.3174 72.1395 40.8412 71.8372 42.263 71.2497C43.6847 70.6623 44.9766 69.8013 46.0647 68.7158C47.1529 67.6304 48.0161 66.3418 48.605 64.9236C49.1939 63.5054 49.497 61.9854 49.497 60.4503C49.497 58.9153 49.1939 57.3953 48.605 55.9771C48.0161 54.5589 47.1529 53.2703 46.0647 52.1849C44.9766 51.0994 43.6847 50.2384 42.263 49.651C40.8412 49.0635 39.3174 48.7612 37.7785 48.7612C34.6706 48.7612 31.6899 49.9927 29.4923 52.1849C27.2946 54.377 26.06 57.3502 26.06 60.4503C26.06 63.5505 27.2946 66.5237 29.4923 68.7158C31.6899 70.908 34.6706 72.1395 37.7785 72.1395ZM72.2571 72.1395C73.7961 72.1395 75.3199 71.8372 76.7416 71.2497C78.1634 70.6623 79.4552 69.8013 80.5434 68.7158C81.6316 67.6304 82.4947 66.3418 83.0836 64.9236C83.6726 63.5054 83.9757 61.9854 83.9757 60.4503C83.9757 58.9153 83.6726 57.3953 83.0836 55.9771C82.4947 54.5589 81.6316 53.2703 80.5434 52.1849C79.4552 51.0994 78.1634 50.2384 76.7416 49.651C75.3199 49.0635 73.7961 48.7612 72.2571 48.7612C69.1492 48.7612 66.1686 49.9927 63.9709 52.1849C61.7733 54.377 60.5386 57.3502 60.5386 60.4503C60.5386 63.5505 61.7733 66.5237 63.9709 68.7158C66.1686 70.908 69.1492 72.1395 72.2571 72.1395Z" fill="black"/>
</g>
<defs>
<clipPath id="clip0_685_390">
<rect width="312" height="142" fill="white"/>
</clipPath>
</defs>
</svg>
