<svg width="340" height="122" viewBox="0 0 340 122" fill="none" xmlns="http://www.w3.org/2000/svg">
<path d="M69.506 42.2715H47.7878L36.8945 61.0022L47.7878 79.6033H69.506L80.4816 60.9953L69.506 42.2715ZM66.666 74.6139H50.7513L42.6568 61.0293L50.7101 47.2609H66.666L74.7125 61.0293L66.666 74.6139Z" fill="black"/>
<path d="M69.506 82.4414H47.7878L36.8945 101.155L47.7878 119.773H69.506L80.4816 101.155L69.506 82.4414ZM66.666 114.774H50.7513L42.6568 101.189L50.7101 87.4131H66.666L74.7125 101.189L66.666 114.774Z" fill="black"/>
<path d="M69.506 2.10156H47.7878L36.8945 20.8391L47.7878 39.4334H69.506L80.4816 20.8391L69.506 2.10156ZM66.666 34.4613H50.7513L42.6568 20.8391L50.7101 7.08049H66.666L74.6852 20.8391L66.666 34.4613Z" fill="black"/>
<path d="M104.989 62.3564H83.2639L72.3774 81.087L83.2639 99.6882H104.989L115.964 81.087L104.989 62.3564ZM102.115 94.6939H86.1998L78.1465 81.1143L86.1998 67.3235H102.115L110.168 81.087L102.115 94.6939Z" fill="black"/>
<path d="M104.989 22.1865H83.2639L72.3774 41.0199L83.2639 59.7366H104.989L115.964 41.0199L104.989 22.1865ZM102.115 54.725H86.1998L78.1465 41.0609L86.1998 27.2119H102.115L110.168 41.0609L102.115 54.725Z" fill="black"/>
<path d="M34.0785 62.3564H12.4694L1.63086 81.087L12.4694 99.6882H34.0785L44.9989 81.087L34.0785 62.3564ZM31.2254 94.6939H15.3908L7.37778 81.1143L15.3908 67.3235H31.2254L39.2384 81.1143L31.2254 94.6939Z" fill="black"/>
<path d="M34.0785 22.1865H12.4694L1.63086 41.0199L12.4694 59.7366H34.0785L44.9989 41.0199L34.0785 22.1865ZM31.2254 54.725H15.3908L7.37778 41.0474L15.3908 27.1982H31.2254L39.2384 41.0474L31.2254 54.725Z" fill="black"/>
<path d="M160.723 50.3606C162.516 50.3523 164.305 50.5477 166.054 50.9432C167.576 51.2718 169.041 51.8226 170.402 52.5776V57.7941C168.878 57.2019 167.315 56.7167 165.723 56.3421C164.296 56.0202 162.838 55.857 161.375 55.8552C159.795 55.8592 158.226 56.1205 156.731 56.629C155.18 57.1417 153.77 58.0045 152.609 59.1502C151.302 60.4652 150.302 62.0502 149.678 63.7931C148.878 66.0831 148.498 68.4979 148.556 70.9221C148.539 72.8626 148.818 74.7945 149.382 76.6517C149.89 78.3177 150.73 79.8643 151.852 81.1986C152.967 82.4956 154.37 83.5165 155.948 84.1807C157.751 84.9312 159.691 85.2984 161.645 85.2587C163.235 85.2546 164.821 85.0826 166.375 84.7457C167.964 84.4122 169.518 83.935 171.019 83.32V88.5363C170.444 88.8578 169.842 89.1284 169.219 89.3449C168.42 89.6313 167.604 89.8665 166.775 90.0491C165.842 90.2588 164.899 90.4214 163.949 90.5362C162.957 90.6579 161.957 90.7188 160.957 90.7185C158.465 90.7339 155.988 90.3373 153.626 89.5451C151.379 88.7937 149.321 87.569 147.591 85.9542C145.795 84.2291 144.402 82.1303 143.512 79.8075C142.445 77.0075 141.926 74.0298 141.982 71.0352C141.954 68.7365 142.217 66.4435 142.764 64.2104C143.233 62.3418 143.962 60.5478 144.93 58.8808C145.785 57.4134 146.868 56.0901 148.139 54.9599C150.474 52.8915 153.309 51.4651 156.366 50.8213C157.798 50.5148 159.258 50.3604 160.723 50.3606Z" fill="black"/>
<path d="M180.793 42.289V35.3306H187.296V42.289H180.793ZM180.965 89.6061V51.2219H187.495V89.6061H180.965Z" fill="black"/>
<path d="M200.34 89.6058V31.1553H206.484V89.6058H200.34Z" fill="black"/>
<path d="M219.608 42.289V35.3306H225.866V42.289H219.608ZM219.773 89.6061V51.2219H226.031V89.6061H219.773Z" fill="black"/>
<path d="M253.837 90.7179C252.007 90.7404 250.182 90.5203 248.41 90.0635C246.913 89.6938 245.485 89.09 244.177 88.2746C242.996 87.5213 241.955 86.5673 241.104 85.4559C240.261 84.3662 239.587 83.1574 239.102 81.8693C238.707 80.8365 238.433 79.762 238.285 78.6668C238.117 77.4055 238.035 76.1343 238.039 74.8619V51.1958H244.362V74.7572C244.316 76.5794 244.614 78.394 245.24 80.1066C245.856 81.6874 246.964 83.03 248.402 83.9376C250.083 84.9301 252.017 85.4151 253.969 85.3337C256.006 85.4339 258.023 84.8969 259.739 83.7979C261.187 82.7767 262.28 81.3308 262.865 79.6615C263.36 78.0749 263.591 76.4183 263.55 74.7572V51.1958H269.873V74.8619C269.88 76.0755 269.806 77.2882 269.653 78.4922C269.519 79.5485 269.281 80.5891 268.942 81.5987C268.451 82.912 267.771 84.1467 266.922 85.2639C266.041 86.4014 264.972 87.3811 263.761 88.1611C262.405 89.0146 260.924 89.6506 259.37 90.046C257.563 90.5108 255.703 90.7368 253.837 90.7179Z" fill="black"/>
<path d="M313.053 89.6059H306.766V65.0102C306.797 63.5757 306.611 62.1448 306.216 60.7653C305.91 59.7015 305.37 58.7189 304.635 57.8889C303.958 57.1484 303.11 56.5834 302.164 56.2429C301.129 55.8809 300.039 55.7021 298.942 55.7143C296.772 55.6977 294.645 56.3217 292.83 57.5076C290.88 58.8189 289.202 60.4927 287.888 62.4372V89.6059H281.602V51.3739H286.465L287.679 56.6846H287.801C288.502 55.8016 289.27 54.9733 290.097 54.2068C290.936 53.4323 291.862 52.7578 292.856 52.197C293.906 51.6006 295.031 51.1461 296.201 50.8454C297.499 50.5163 298.834 50.3561 300.174 50.3689C302.71 50.2729 305.21 50.9895 307.307 52.4135C309.247 53.8482 310.756 55.7833 311.673 58.0103H311.839C313.393 55.7681 315.382 53.8591 317.689 52.3962C320.004 51.0115 322.665 50.3086 325.364 50.3688C326.817 50.379 328.263 50.5682 329.669 50.9322C331.197 51.312 332.624 52.0185 333.851 53.0027C335.219 54.1267 336.304 55.5536 337.021 57.1697C337.935 59.3295 338.365 61.6626 338.278 64.0054V89.6059H331.991V65.0102C332.02 63.5764 331.838 62.1462 331.45 60.7653C331.13 59.6922 330.579 58.7017 329.835 57.8628C329.154 57.122 328.303 56.5572 327.355 56.2167C326.32 55.855 325.23 55.6762 324.133 55.6884C321.963 55.6764 319.838 56.3 318.021 57.4817C316.058 58.7868 314.371 60.4613 313.053 62.4114V89.6059Z" fill="black"/>
</svg>
