<svg width="154" height="154" viewBox="0 0 154 154" fill="none" xmlns="http://www.w3.org/2000/svg">
<path d="M42.0511 37.3096C41.8749 37.1425 41.6831 36.9627 41.4936 36.7806C37.6076 33.0473 34.6003 28.7306 32.7837 23.6284C32.2752 22.2004 31.8914 20.7439 31.9595 19.2059C31.966 19.0599 31.9655 18.9135 31.9756 18.7679C32.1127 16.7825 33.4414 15.7793 35.3816 16.2494C35.9936 16.4079 36.5857 16.6349 37.1469 16.926C39.2691 17.9902 40.9988 19.5636 42.5894 21.289C45.4146 24.2956 47.6803 27.7824 49.2798 31.5853C49.3147 31.676 49.3547 31.7645 49.3997 31.8505C49.4216 31.8901 49.4682 31.9161 49.572 32.0103C57.144 27.4676 65.7094 24.8393 74.5262 24.3532C74.4718 24.0834 74.4393 23.8772 74.3883 23.6756C73.4887 19.9527 73.2125 16.1063 73.5712 12.2931C73.729 10.0079 74.1893 7.75387 74.9401 5.58983C75.3032 4.45003 75.8752 3.3877 76.6268 2.45704C76.9108 2.12462 77.2386 1.83228 77.6011 1.58802C77.9623 1.33263 78.3931 1.19405 78.8354 1.19097C79.2778 1.18789 79.7105 1.32044 80.0752 1.57077C80.8458 2.09273 81.466 2.80764 81.874 3.64418C82.6339 5.06294 83.18 6.58617 83.4947 8.16456C84.2122 11.5022 84.4325 14.9276 84.1485 18.3297C84.0078 20.4061 83.6475 22.4617 83.0734 24.4622C85.2669 24.8663 87.4499 25.1794 89.5867 25.6871C91.7189 26.1829 93.8209 26.8003 95.8825 27.5362C97.9609 28.299 99.994 29.1802 101.972 30.1755C103.926 31.1501 105.786 32.3132 107.737 33.4213C107.8 33.2879 107.892 33.1287 107.954 32.9586C109.986 27.3392 113.485 22.3661 118.088 18.5559C119.162 17.6334 120.396 16.915 121.729 16.4359C122.096 16.3079 122.476 16.2207 122.862 16.1756C124.791 15.9547 125.601 17.1687 125.744 18.6186C125.85 19.6875 125.77 20.7668 125.505 21.8078C124.8 24.4971 123.686 27.0617 122.2 29.4116C120.109 32.7909 117.626 35.8349 114.472 38.2914C114.379 38.3639 114.297 38.451 114.139 38.5964C117.225 41.4426 119.973 44.6341 122.33 48.1082C122.159 48.1523 121.985 48.1829 121.809 48.1999C118.546 48.2045 115.283 48.1942 112.019 48.2141C111.827 48.2094 111.639 48.16 111.469 48.0696C111.299 47.9792 111.153 47.8504 111.042 47.6935C103.922 39.9145 94.3232 34.8473 83.8835 33.3566C80.7962 32.9074 77.6701 32.7867 74.5574 32.9965C65.276 33.5632 56.3968 36.9853 49.1359 42.7941C47.261 44.273 45.5121 45.9051 43.9072 47.6734C43.7648 47.8501 43.583 47.9911 43.3764 48.0851C43.1698 48.1791 42.9441 48.2234 42.7173 48.2147C39.6002 48.1931 36.4828 48.2039 33.3656 48.2039H32.7027C32.893 47.4623 34.8095 44.8351 36.9788 42.4897C38.5966 40.7406 40.3104 39.0803 42.0511 37.3096Z" fill="black"/>
<path d="M121.515 107.157C119.347 110.191 116.873 112.995 114.131 115.523C114.35 115.705 114.527 115.853 114.705 116.001C119.463 119.893 123.053 125.025 125.079 130.83C125.618 132.245 125.849 133.759 125.757 135.271C125.729 135.658 125.652 136.04 125.527 136.408C125.371 136.929 125.028 137.374 124.565 137.66C124.102 137.945 123.55 138.05 123.014 137.955C122.292 137.861 121.589 137.653 120.932 137.337C119.928 136.842 118.98 136.242 118.104 135.546C113.487 131.753 109.982 126.783 107.959 121.16C107.902 121.002 107.839 120.846 107.737 120.582C105.278 122.208 102.704 123.65 100.033 124.897C97.3755 126.108 94.6273 127.11 91.8135 127.892C88.9544 128.668 86.0399 129.223 83.0957 129.551C83.1475 129.81 83.1771 130.016 83.2304 130.216C84.1643 133.88 84.4736 137.675 84.1454 141.441C84.0224 143.802 83.5637 146.133 82.7832 148.364C82.4116 149.287 81.9832 150.187 81.5004 151.057C81.3048 151.395 81.0623 151.703 80.7801 151.972C79.5543 153.238 78.0906 153.249 76.8958 151.95C76.4236 151.426 76.0193 150.844 75.6924 150.219C74.7448 148.44 74.257 146.506 73.9088 144.534C73.4607 141.841 73.3203 139.107 73.4902 136.382C73.5829 134.387 73.8806 132.407 74.3787 130.473C74.4219 130.309 74.4613 130.144 74.4931 129.977C74.5012 129.935 74.4736 129.886 74.4405 129.75C65.6251 129.252 57.0646 126.609 49.5022 122.052C49.376 122.332 49.2675 122.568 49.1629 122.805C47.0436 127.75 43.7818 132.122 39.6453 135.563C38.5503 136.498 37.2926 137.225 35.9349 137.706C35.2986 137.961 34.6042 138.036 33.9282 137.922C33.5549 137.855 33.2053 137.692 32.9136 137.45C32.622 137.208 32.3981 136.894 32.264 136.539C31.8278 135.484 31.9051 134.388 32.0532 133.3C32.2961 131.784 32.7424 130.307 33.3799 128.911C35.2689 124.511 38.0492 120.551 41.5454 117.28C41.6868 117.146 41.8318 117.016 41.9707 116.879C42.0148 116.816 42.0525 116.749 42.0832 116.678C38.7891 113.821 35.8456 110.583 33.3148 107.032C33.618 107.007 33.8209 106.977 34.0238 106.976C37.2622 106.973 40.5007 106.985 43.739 106.963C43.9544 106.956 44.1686 106.998 44.3659 107.085C44.5632 107.171 44.7387 107.301 44.8797 107.464C48.4002 111.086 52.5023 114.093 57.0157 116.36C61.7906 118.818 66.9827 120.361 72.3245 120.911C86.8376 122.322 99.3218 117.922 109.777 107.712C110.011 107.459 110.298 107.26 110.617 107.13C110.935 107 111.279 106.942 111.623 106.959C114.642 106.996 117.661 106.974 120.681 106.974H121.461L121.515 107.157Z" fill="black"/>
<path d="M108.027 60.9105C108.885 60.9105 109.712 60.9688 110.526 60.8951C111.449 60.8116 112.109 61.1415 112.782 61.7615C116.667 65.3411 120.592 68.8767 124.504 72.4267C124.701 72.6052 124.901 72.7792 125.154 73.0027C125.389 72.8003 125.61 72.6198 125.821 72.4281C129.853 68.7573 133.883 65.0832 137.909 61.4059C138.076 61.2338 138.278 61.0995 138.501 61.012C138.725 60.9246 138.964 60.886 139.204 60.899C140.195 60.9392 141.189 60.9105 142.235 60.9105V93.3641C141.704 93.5192 134.573 93.55 133.722 93.3829V76.9474L133.557 76.8691C130.781 79.4002 128.006 81.9313 125.167 84.5201C122.326 81.9602 119.518 79.4308 116.71 76.9014L116.549 76.9606C116.542 78.3323 116.546 79.7043 116.546 81.0761C116.545 82.4394 116.545 83.8027 116.545 85.166V93.4426H108.098C107.939 92.8966 107.866 62.7467 108.027 60.9105Z" fill="black"/>
<path d="M30.0714 60.9478H38.4685C38.6381 61.4875 38.6712 92.6629 38.4977 93.4495H30.0931C30.0468 91.3848 30.0785 89.3272 30.0727 87.2706C30.0669 85.2308 30.0714 83.191 30.0714 81.0984H19.6649V93.3385C19.0306 93.528 11.8621 93.5461 11.1494 93.3764V60.9515H19.6312V72.4056C20.2373 72.5807 29.1555 72.613 30.0638 72.4455C30.0663 71.5285 30.0699 70.5893 30.0712 69.6501C30.0724 68.6762 30.0725 67.7022 30.0714 66.7283C30.0714 65.7786 30.0714 64.8289 30.0714 63.8793C30.0714 62.9311 30.0714 61.983 30.0714 60.9478Z" fill="black"/>
<path d="M48.5332 93.4372V61.0437C49.0312 60.8808 67.4891 60.8171 68.6956 60.9807V67.8843C68.4249 67.9037 68.1456 67.9408 67.8662 67.9412C64.5791 67.9453 61.292 67.9462 58.0049 67.9439H57.0908V73.3134H67.3615V80.4564H57.1827C57.0122 81.0679 56.9654 85.328 57.1038 86.5074C57.364 86.5249 57.6428 86.5596 57.9216 86.5599C61.2087 86.5637 64.4958 86.5646 67.7829 86.5624H68.6975V93.4372H48.5332Z" fill="black"/>
<path d="M78.3191 93.45C78.1649 92.5807 78.1961 61.5407 78.3492 60.9507H86.7151V84.9022C87.076 84.9209 87.3592 84.9481 87.6424 84.9484C90.954 84.9514 94.2656 84.9521 97.5773 84.9504C97.8624 84.9504 98.1475 84.9504 98.4727 84.9504V93.45L78.3191 93.45Z" fill="black"/>
</svg>
