<svg width="443" height="108" viewBox="0 0 443 108" fill="none" xmlns="http://www.w3.org/2000/svg">
<path d="M141.312 55.6148C142.135 54.6888 142.958 53.7628 143.884 52.8368C144.744 51.8793 145.602 50.9193 146.456 49.9568C147.279 48.9268 148.102 48.0008 148.823 47.1768C149.544 46.3528 150.263 45.5318 150.777 44.9148H160.757C158.802 47.1778 156.847 49.4418 154.893 51.4988C153.041 53.5568 150.983 55.7175 148.72 57.9808C149.961 59.1428 151.129 60.3797 152.218 61.6848C153.452 63.1248 154.584 64.5648 155.716 66.0048C156.838 67.4484 157.869 68.9607 158.802 70.5328C159.728 72.0758 160.552 73.4128 161.169 74.6478H151.498C150.88 73.6178 150.16 72.5898 149.44 71.4578C148.687 70.2108 147.863 69.0088 146.97 67.8578C146.134 66.6235 145.205 65.4542 144.193 64.3598C143.373 63.3335 142.441 62.4017 141.415 61.5818V74.5448H132.979V32.0548L141.415 30.7168V55.6148" fill="black"/>
<path d="M190.49 73.619C188.667 74.1272 186.811 74.5054 184.935 74.751C182.588 75.1343 180.212 75.3063 177.835 75.265C175.662 75.344 173.495 74.9947 171.457 74.237C169.923 73.6575 168.566 72.6887 167.52 71.426C166.474 70.1633 165.774 68.65 165.49 67.035C165.07 65.2131 164.863 63.3487 164.872 61.479V44.915H173.309V60.45C173.309 63.125 173.618 65.08 174.338 66.315C175.058 67.55 176.395 68.167 178.35 68.167C179.003 68.1814 179.657 68.147 180.305 68.064C181.025 67.961 181.54 67.961 182.157 67.858V44.915H190.593L190.49 73.619Z" fill="black"/>
<path d="M217.549 59.5238C217.549 54.0718 215.594 51.3968 211.581 51.3968C210.715 51.3977 209.851 51.5011 209.009 51.7048C208.288 51.8795 207.595 52.1567 206.952 52.5278V67.8578C207.363 67.9608 207.878 67.9608 208.495 68.0638C209.112 68.0638 209.832 68.1668 210.553 68.1668C211.552 68.2118 212.548 68.021 213.459 67.6098C214.371 67.1986 215.173 66.5785 215.8 65.7998C217.031 63.9447 217.643 61.7479 217.549 59.5238ZM226.088 59.7298C226.131 61.9343 225.783 64.1291 225.059 66.2118C224.44 68.057 223.421 69.743 222.076 71.1498C220.674 72.5017 219.035 73.5831 217.24 74.3398C215.124 75.0713 212.894 75.4194 210.655 75.3678C209.627 75.3678 208.598 75.2648 207.466 75.1628C206.334 75.0608 205.306 74.9568 204.174 74.8528C203.145 74.7508 202.116 74.5448 201.087 74.3388C200.207 74.1877 199.345 73.9464 198.515 73.6188V32.0538L206.952 30.7168V45.5318C207.91 45.1157 208.91 44.8052 209.935 44.6058C211.02 44.3965 212.123 44.2934 213.228 44.2978C215.14 44.2624 217.037 44.6482 218.783 45.4278C220.377 46.1219 221.787 47.1794 222.899 48.5158C224.083 49.9555 224.926 51.6433 225.368 53.4538C225.834 55.5136 226.076 57.6179 226.088 59.7298Z" fill="black"/>
<path d="M231.13 60.039C231.074 57.6817 231.494 55.3375 232.364 53.146C233.108 51.3136 234.19 49.6377 235.554 48.206C236.815 46.8796 238.363 45.8595 240.08 45.224C241.777 44.5272 243.596 44.177 245.43 44.194C247.275 44.1095 249.116 44.414 250.836 45.0876C252.555 45.7612 254.114 46.7889 255.41 48.104C257.879 50.676 259.113 54.484 259.113 59.421C259.127 59.9719 259.093 60.523 259.011 61.068C259.011 61.582 258.908 62.096 258.908 62.611H239.77C239.854 63.4363 240.118 64.233 240.545 64.9443C240.972 65.6556 241.551 66.2639 242.24 66.726C243.953 67.827 245.967 68.3663 248.001 68.269C249.52 68.2901 251.037 68.1523 252.528 67.858C253.795 67.6445 255.036 67.2993 256.232 66.828L257.363 73.722C256.952 73.928 256.335 74.134 255.512 74.442C254.679 74.7219 253.815 74.8949 252.939 74.957C251.954 75.158 250.958 75.295 249.956 75.367C248.927 75.471 247.796 75.574 246.766 75.574C244.375 75.6291 241.997 75.2096 239.77 74.34C237.931 73.6093 236.254 72.5256 234.832 71.15C233.561 69.706 232.583 68.029 231.952 66.212C231.412 64.1985 231.135 62.1236 231.128 60.039M250.985 56.747C250.957 56.0435 250.818 55.3488 250.573 54.689C250.369 54.0245 250.056 53.3986 249.647 52.837C249.159 52.222 248.53 51.733 247.815 51.4108C247.099 51.0886 246.316 50.9426 245.532 50.985C244.682 50.9857 243.841 51.1606 243.062 51.499C242.417 51.7638 241.851 52.1889 241.417 52.734C240.955 53.2771 240.604 53.9066 240.387 54.586C240.167 55.259 239.996 55.9467 239.873 56.644H250.985" fill="black"/>
<path d="M283.497 52.3226C282.622 52.0726 281.727 51.9002 280.822 51.8076C279.738 51.5977 278.635 51.4939 277.53 51.4976C276.875 51.5312 276.223 51.6003 275.575 51.7046C275.022 51.7791 274.472 51.8823 273.929 52.0136V74.7496H265.492V46.4576C267.243 45.8651 269.03 45.3841 270.842 45.0176C273.103 44.5024 275.417 44.2607 277.735 44.2976C278.286 44.2863 278.836 44.3204 279.381 44.3996C280.037 44.4226 280.69 44.4914 281.336 44.6056C281.954 44.7086 282.571 44.8116 283.291 44.9146C283.908 45.0176 284.526 45.2236 284.937 45.3246L283.497 52.3226Z" fill="black"/>
<path d="M289.464 45.9438C293.594 44.8541 297.847 44.3009 302.119 44.2978C304.259 44.2085 306.395 44.5584 308.395 45.3258C309.967 45.8557 311.358 46.8186 312.407 48.1038C313.376 49.3913 314.075 50.8604 314.465 52.4238C314.896 54.2441 315.103 56.1103 315.082 57.9808V74.7508H306.645V59.0098C306.645 56.3348 306.337 54.3798 305.617 53.2478C304.897 52.1158 303.559 51.6018 301.604 51.6018C300.951 51.5874 300.297 51.6218 299.649 51.7048C299.027 51.7168 298.407 51.7858 297.798 51.9108V74.8538H289.464V45.9438Z" fill="black"/>
<path d="M321.358 60.039C321.302 57.6817 321.722 55.3374 322.592 53.146C323.336 51.3136 324.418 49.6377 325.782 48.206C327.044 46.8794 328.592 45.8593 330.309 45.224C332.006 44.5272 333.825 44.177 335.659 44.194C337.504 44.1095 339.345 44.414 341.065 45.0876C342.784 45.7612 344.343 46.7889 345.639 48.104C348.107 50.676 349.342 54.484 349.342 59.421C349.356 59.9719 349.321 60.523 349.239 61.068C349.239 61.582 349.136 62.096 349.136 62.611H330C330.084 63.4363 330.348 64.233 330.775 64.9443C331.202 65.6556 331.781 66.2639 332.47 66.726C334.183 67.8268 336.196 68.3662 338.23 68.269C339.749 68.2901 341.267 68.1524 342.758 67.858C344.025 67.6445 345.266 67.2992 346.461 66.828L347.593 73.722C347.182 73.928 346.564 74.134 345.741 74.442C344.909 74.7218 344.045 74.8948 343.169 74.957C342.184 75.158 341.187 75.295 340.185 75.367C339.157 75.471 338.025 75.574 336.996 75.574C334.605 75.6291 332.227 75.2096 330 74.34C328.161 73.6093 326.484 72.5256 325.062 71.15C323.791 69.7061 322.812 68.029 322.181 66.212C321.641 64.1984 321.365 62.1235 321.358 60.039ZM341.214 56.747C341.187 56.0435 341.048 55.3489 340.803 54.689C340.599 54.0245 340.286 53.3986 339.877 52.837C339.389 52.2219 338.76 51.7328 338.044 51.4106C337.328 51.0883 336.545 50.9424 335.761 50.985C334.911 50.9858 334.071 51.1607 333.292 51.499C332.647 51.7637 332.08 52.1888 331.646 52.734C331.184 53.2772 330.834 53.9067 330.617 54.586C330.397 55.259 330.226 55.9467 330.103 56.644H341.214" fill="black"/>
<path d="M355.618 37.5069L364.054 36.1699V44.9149H374.137V51.9099H364.054V62.4039C363.984 63.8671 364.304 65.3227 364.98 66.6219C365.598 67.6519 366.935 68.1659 368.787 68.1659C369.716 68.1485 370.644 68.0797 371.565 67.9599C372.475 67.7943 373.37 67.5535 374.24 67.2399L375.474 73.8239C374.383 74.2888 373.245 74.6338 372.079 74.8529C370.557 75.1711 369.003 75.3087 367.449 75.2629C365.488 75.3169 363.535 75.0035 361.689 74.3389C360.303 73.7761 359.069 72.8946 358.087 71.7659C357.134 70.559 356.466 69.1523 356.132 67.6509C355.788 65.9232 355.616 64.1656 355.618 62.4039V37.5069Z" fill="black"/>
<path d="M378.458 60.039C378.403 57.6817 378.823 55.3374 379.693 53.146C380.436 51.3136 381.518 49.6378 382.882 48.206C384.144 46.8794 385.692 45.8593 387.409 45.224C389.106 44.5272 390.925 44.177 392.759 44.194C394.604 44.1095 396.445 44.414 398.165 45.0876C399.884 45.7612 401.443 46.7889 402.739 48.104C405.208 50.676 406.442 54.484 406.442 59.421C406.456 59.9719 406.421 60.523 406.339 61.068C406.339 61.582 406.236 62.096 406.236 62.611H387.1C387.184 63.4363 387.448 64.233 387.875 64.9443C388.302 65.6556 388.881 66.2639 389.57 66.726C391.283 67.8268 393.296 68.3662 395.33 68.269C396.85 68.2901 398.367 68.1524 399.858 67.858C401.125 67.6445 402.366 67.2992 403.561 66.828L404.693 73.722C404.282 73.928 403.664 74.134 402.841 74.442C402.009 74.7218 401.145 74.8948 400.269 74.957C399.285 75.158 398.288 75.295 397.286 75.367C396.256 75.471 395.126 75.574 394.096 75.574C391.705 75.6291 389.327 75.2096 387.1 74.34C385.261 73.6093 383.584 72.5256 382.162 71.15C380.891 69.706 379.913 68.029 379.282 66.212C378.692 64.2088 378.414 62.1267 378.458 60.039ZM398.212 56.747C398.184 56.0435 398.045 55.3488 397.8 54.689C397.596 54.0245 397.283 53.3986 396.874 52.837C396.386 52.222 395.758 51.733 395.042 51.4108C394.326 51.0886 393.543 50.9426 392.759 50.985C391.909 50.9857 391.069 51.1606 390.289 51.499C389.644 51.7637 389.077 52.1888 388.643 52.734C388.181 53.2773 387.832 53.9068 387.615 54.586C387.395 55.259 387.223 55.9467 387.1 56.644H398.212" fill="black"/>
<path d="M421.36 68.5778C422.474 68.6597 423.593 68.52 424.653 68.1668C424.961 67.9972 425.213 67.7412 425.377 67.4302C425.542 67.1192 425.611 66.767 425.578 66.4168C425.578 65.6968 425.167 65.1828 424.344 64.6688C423.141 63.9506 421.865 63.3638 420.537 62.9188C419.2 62.4048 417.965 61.8908 416.937 61.3758C415.952 60.9044 415.049 60.2793 414.261 59.5238C413.505 58.7581 412.91 57.8485 412.512 56.8488C412.074 55.6647 411.864 54.4081 411.895 53.1458C411.838 51.8804 412.089 50.6202 412.627 49.4732C413.164 48.3263 413.972 47.3269 414.981 46.5608C417.039 44.9148 419.92 44.0908 423.521 44.0908C425.282 44.1043 427.038 44.2766 428.768 44.6058C430.104 44.8093 431.415 45.1545 432.678 45.6358L431.237 52.2198C430.208 51.9098 429.179 51.6018 428.047 51.2938C426.802 50.9876 425.522 50.8491 424.241 50.8818C421.566 50.8818 420.331 51.6018 420.331 53.0418C420.35 53.3598 420.419 53.6727 420.537 53.9688C420.681 54.3139 420.934 54.6027 421.257 54.7918C421.566 54.9978 422.08 55.3058 422.595 55.6148C423.212 55.9228 423.932 56.1288 424.858 56.5408C426.45 57.1102 427.998 57.7978 429.488 58.5978C430.568 59.0932 431.519 59.8326 432.266 60.7578C432.976 61.4645 433.475 62.3557 433.706 63.3308C434.014 64.4 434.153 65.5107 434.118 66.6228C434.183 67.9256 433.915 69.2236 433.339 70.3939C432.762 71.5641 431.897 72.5681 430.825 73.3108C428.665 74.8538 425.578 75.5738 421.463 75.5738C419.245 75.6421 417.029 75.3997 414.879 74.8538C413.644 74.5984 412.437 74.2191 411.278 73.7218L412.718 66.8288C414.158 67.3824 415.636 67.8293 417.142 68.1658C418.528 68.4606 419.943 68.5988 421.36 68.5778Z" fill="black"/>
<path d="M64.0331 60.589C63.9038 60.5634 63.7718 60.5533 63.6401 60.559C63.4126 60.5711 63.1898 60.6289 62.9851 60.729C62.5878 60.9207 62.2798 61.2584 62.1253 61.6716C61.9709 62.0848 61.9819 62.5417 62.1561 62.947L62.1441 62.964L66.0641 72.434C69.8144 70.0406 72.66 66.4656 74.1511 62.274L64.0501 60.569L64.0331 60.589ZM48.3161 61.93C48.2311 61.5567 48.0233 61.2228 47.7259 60.9817C47.4286 60.7405 47.0589 60.6061 46.6761 60.6C46.5631 60.5987 46.4501 60.6087 46.3391 60.63L46.3221 60.609L36.3091 62.309C37.8128 66.4671 40.6467 70.0128 44.3711 72.396L48.2511 63.02L48.2211 62.983C48.3644 62.6512 48.3977 62.2822 48.3161 61.93ZM56.7021 65.607C56.5558 65.3344 56.3383 65.1066 56.0727 64.9479C55.807 64.7892 55.5033 64.7056 55.1939 64.706C54.8845 64.7064 54.581 64.7908 54.3158 64.9502C54.0506 65.1096 53.8337 65.338 53.6881 65.611H53.6801L48.7561 74.515C52.2817 75.7153 56.0719 75.9103 59.7021 75.078C60.3754 74.9247 61.0331 74.741 61.6751 74.527L56.7391 65.607H56.7021ZM72.2901 44.925L64.7141 51.705L64.7181 51.727C64.4854 51.9305 64.3121 52.1932 64.2167 52.4872C64.1212 52.7812 64.1071 53.0955 64.1759 53.3969C64.2448 53.6983 64.3939 53.9754 64.6075 54.1988C64.8211 54.4223 65.0912 54.5837 65.3891 54.666L65.3981 54.706L75.2121 57.534C75.6364 53.1247 74.6105 48.6984 72.2901 44.925ZM58.2151 45.684C58.2294 45.9929 58.327 46.2921 58.4976 46.55C58.6683 46.8078 58.9056 47.0146 59.1843 47.1484C59.463 47.2823 59.7728 47.3381 60.0807 47.31C60.3886 47.282 60.6832 47.171 60.9331 46.989L60.9631 47.002L69.2531 41.124C66.0976 38.0328 62.0139 36.0638 57.6301 35.52L58.2061 45.68L58.2151 45.684ZM49.4361 47.027C49.6862 47.2088 49.9809 47.3195 50.2889 47.3471C50.5968 47.3747 50.9065 47.3183 51.185 47.1839C51.4635 47.0495 51.7003 46.8421 51.8702 46.5838C52.0402 46.3255 52.1369 46.0259 52.1501 45.717L52.1921 45.697L52.7681 35.521C52.0728 35.6043 51.3823 35.7232 50.6991 35.877C47.0654 36.6939 43.7323 38.5102 41.0761 41.121L49.4201 47.036L49.4361 47.027ZM44.9881 54.716C45.2868 54.6345 45.5577 54.4735 45.772 54.25C45.9864 54.0266 46.136 53.7492 46.205 53.4474C46.274 53.1455 46.2597 52.8307 46.1638 52.5363C46.0678 52.242 45.8937 51.9792 45.6601 51.776L45.6681 51.736L38.0501 44.922C35.726 48.7048 34.7285 53.1541 35.2151 57.567L44.9801 54.749L44.9881 54.716ZM52.3871 57.709L55.1971 59.059L57.9991 57.712L58.6951 54.687L56.7561 52.262H53.6351L51.6901 54.682L52.3871 57.709Z" fill="black"/>
<path d="M101.654 63.6688L93.6461 28.8858C93.4307 27.986 93.0183 27.1452 92.4387 26.4241C91.859 25.703 91.1265 25.1195 90.2941 24.7158L57.8801 9.2398C57.04 8.83891 56.1209 8.63086 55.1901 8.63086C54.2592 8.63086 53.3402 8.83891 52.5001 9.2398L20.0931 24.7238C19.2603 25.1273 18.5276 25.7107 17.9477 26.4318C17.3679 27.153 16.9554 27.9939 16.7401 28.8938L8.74506 63.6758C8.5479 64.5548 8.54721 65.4665 8.74306 66.3458C8.80086 66.6138 8.87636 66.8778 8.96906 67.1358C9.12543 67.576 9.33249 67.9965 9.58606 68.3888C9.69606 68.5568 9.81206 68.7188 9.93806 68.8778L32.3701 96.7678C32.4681 96.8878 32.5761 96.9998 32.6831 97.1128C33.035 97.4875 33.4324 97.8167 33.8661 98.0928C34.4147 98.4378 35.0125 98.6974 35.6391 98.8628C36.1527 99.0038 36.6825 99.0771 37.2151 99.0808H37.5641L73.1881 99.0728C73.4046 99.0719 73.6209 99.0592 73.8361 99.0348C74.1447 98.9998 74.4502 98.9417 74.7501 98.8608C74.9651 98.8043 75.1771 98.7365 75.3851 98.6578C75.5479 98.5982 75.7081 98.5315 75.8651 98.4578C76.0992 98.346 76.3262 98.2201 76.5451 98.0808C77.1095 97.7259 77.6122 97.281 78.0331 96.7638L78.7171 95.9138L100.457 68.8688C100.874 68.3462 101.201 67.7583 101.426 67.1288C101.52 66.8701 101.597 66.6056 101.656 66.3368C101.852 65.4576 101.852 64.5458 101.654 63.6668V63.6688ZM68.0331 77.1968C68.124 77.4644 68.2319 77.7259 68.3561 77.9798C68.158 78.3267 68.1041 78.7376 68.2061 79.1238C68.6777 80.204 69.2538 81.2356 69.9261 82.2038C70.3022 82.6987 70.6495 83.2149 70.9661 83.7498C71.0441 83.8948 71.1461 84.1188 71.2201 84.2718C71.3599 84.5052 71.4494 84.7653 71.4827 85.0353C71.516 85.3053 71.4924 85.5793 71.4134 85.8397C71.3344 86.1 71.2017 86.341 71.024 86.547C70.8462 86.753 70.6273 86.9195 70.3814 87.0358C70.1354 87.1521 69.8678 87.2156 69.5958 87.2222C69.3238 87.2288 69.0534 87.1784 68.8021 87.0742C68.5507 86.97 68.324 86.8144 68.1364 86.6173C67.9489 86.4202 67.8046 86.186 67.7131 85.9298C67.6391 85.7778 67.5361 85.5758 67.4731 85.4328C67.2514 84.8514 67.0634 84.2578 66.9101 83.6548C66.5737 82.5267 66.1279 81.4342 65.5791 80.3928C65.3403 80.0707 64.985 79.855 64.5891 79.7918C64.5271 79.6848 64.2971 79.2638 64.1741 79.0458C58.4038 81.231 52.031 81.2146 46.2721 78.9998L45.8331 79.7958C45.5198 79.8443 45.2285 79.9862 44.9971 80.2028C44.3356 81.2884 43.83 82.4615 43.4951 83.6878C43.343 84.2908 43.156 84.8845 42.9351 85.4658C42.8731 85.6078 42.7691 85.8078 42.6951 85.9588V85.9628L42.6921 85.9668C42.6006 86.2233 42.4563 86.4577 42.2687 86.655C42.081 86.8522 41.854 87.008 41.6024 87.1121C41.3509 87.2163 41.0802 87.2665 40.808 87.2596C40.5358 87.2527 40.2681 87.1889 40.0221 87.0721C39.7761 86.9554 39.5573 86.7884 39.3799 86.5818C39.2024 86.3753 39.0702 86.1339 38.9918 85.8731C38.9134 85.6124 38.8906 85.3381 38.9247 85.068C38.9589 84.7978 39.0492 84.5378 39.1901 84.3048C39.2631 84.1508 39.3611 83.9278 39.4381 83.7828C39.7546 83.2465 40.1018 82.729 40.4781 82.2328C41.1625 81.2391 41.7505 80.1823 42.2341 79.0768C42.2854 78.7021 42.2252 78.3205 42.0611 77.9798L42.4141 77.1338C37.1047 74.0004 33.1255 69.0323 31.2271 63.1668L30.3821 63.3108C30.0541 63.0781 29.6675 62.9419 29.2661 62.9178C28.1095 63.1391 26.9772 63.4723 25.8851 63.9128C25.3179 64.1681 24.7366 64.3908 24.1441 64.5798C24.0041 64.6178 23.8021 64.6568 23.6421 64.6918C23.6291 64.6958 23.6181 64.7018 23.6051 64.7048L23.5751 64.7078C23.3176 64.7925 23.0452 64.8226 22.7754 64.796C22.5056 64.7694 22.2444 64.6868 22.0084 64.5534C21.7724 64.42 21.5668 64.2388 21.4049 64.0214C21.243 63.8039 21.1283 63.5551 21.0681 63.2908C21.0078 63.0265 21.0035 62.7525 21.0553 62.4864C21.1071 62.2203 21.2139 61.968 21.3688 61.7455C21.5238 61.5231 21.7235 61.3354 21.9551 61.1946C22.1868 61.0538 22.4453 60.9629 22.7141 60.9278L22.7421 60.9208L22.7591 60.9158C22.9211 60.8778 23.1291 60.8238 23.2771 60.7958C23.894 60.7101 24.5154 60.66 25.1381 60.6458C26.3129 60.569 27.4774 60.3777 28.6151 60.0748C28.9523 59.8601 29.2372 59.5728 29.4491 59.2338L30.2611 58.9968C29.3797 52.8749 30.7895 46.6432 34.2201 41.4968L33.5981 40.9428C33.5754 40.5403 33.4403 40.1523 33.2081 39.8228C32.3147 39.0548 31.3484 38.3759 30.3231 37.7958C29.7695 37.5136 29.2326 37.1997 28.7151 36.8558C28.5971 36.7678 28.4411 36.6358 28.3131 36.5318L28.2841 36.5118C27.8428 36.1948 27.545 35.7161 27.4556 35.1802C27.3662 34.6443 27.4926 34.0948 27.8071 33.6518C27.9929 33.4243 28.2297 33.2439 28.4983 33.125C28.7669 33.0062 29.0597 32.9523 29.3531 32.9678C29.8466 32.989 30.3205 33.1677 30.7051 33.4778C30.8371 33.5818 31.0181 33.7198 31.1351 33.8208C31.5867 34.2479 32.0134 34.7007 32.4131 35.1768C33.2058 36.0477 34.0816 36.8391 35.0281 37.5398C35.3826 37.7263 35.7962 37.7665 36.1801 37.6518C36.2911 37.7338 36.6661 38.0018 36.8801 38.1488C40.2888 34.5257 44.7027 32.0041 49.5551 30.9078C50.71 30.646 51.8819 30.4655 53.0621 30.3678L53.1081 29.5478C53.4093 29.2803 53.6279 28.9323 53.7381 28.5448C53.7804 27.3679 53.7081 26.1897 53.5221 25.0268C53.3986 24.4174 53.3101 23.8014 53.2571 23.1818C53.2521 23.0408 53.2601 22.8458 53.2621 22.6848C53.2621 22.6668 53.2571 22.6488 53.2571 22.6308C53.2293 22.3595 53.2588 22.0854 53.3436 21.8262C53.4284 21.567 53.5667 21.3285 53.7494 21.1261C53.9321 20.9236 54.1553 20.7617 54.4044 20.6509C54.6536 20.5401 54.9232 20.4827 55.196 20.4826C55.4687 20.4824 55.7384 20.5395 55.9877 20.6501C56.2369 20.7607 56.4603 20.9223 56.6432 21.1246C56.8261 21.3268 56.9646 21.5652 57.0497 21.8243C57.1347 22.0834 57.1645 22.3575 57.1371 22.6288C57.1371 22.7988 57.1471 23.0248 57.1411 23.1808C57.088 23.8001 56.9992 24.4158 56.8751 25.0248C56.6878 26.1879 56.6141 27.3664 56.6551 28.5438C56.7317 28.9375 56.9593 29.2856 57.2891 29.5138C57.2961 29.6538 57.3191 30.1218 57.3361 30.3798C63.4685 30.9374 69.1901 33.7019 73.4381 38.1598L74.1761 37.6328C74.5727 37.7008 74.9804 37.6565 75.3531 37.5048C76.2994 36.8028 77.1752 36.0104 77.9681 35.1388C78.3685 34.6624 78.7962 34.2097 79.2491 33.7828C79.3681 33.6808 79.5481 33.5428 79.6791 33.4398C79.8737 33.2478 80.1066 33.0989 80.3626 33.0028C80.6185 32.9066 80.8918 32.8653 81.1648 32.8817C81.4377 32.898 81.7041 32.9715 81.9468 33.0975C82.1895 33.2235 82.4029 33.3991 82.5733 33.6129C82.7437 33.8267 82.8672 34.074 82.9359 34.3387C83.0045 34.6033 83.0167 34.8795 82.9717 35.1492C82.9267 35.4189 82.8255 35.6761 82.6746 35.9041C82.5238 36.1321 82.3267 36.3259 82.0961 36.4728C81.9661 36.5778 81.7941 36.7248 81.6691 36.8178C81.1503 37.162 80.6121 37.4758 80.0571 37.7578C79.0319 38.3383 78.0657 39.0171 77.1721 39.7848C76.9118 40.0895 76.7812 40.484 76.8081 40.8838C76.7001 40.9828 76.3211 41.3188 76.1201 41.5008C79.5601 46.6287 80.998 52.8409 80.1611 58.9588L80.9441 59.1868C81.1398 59.5395 81.4296 59.8309 81.7811 60.0288C82.9191 60.3319 84.0839 60.5235 85.2591 60.6008C85.8814 60.6151 86.5024 60.6648 87.1191 60.7498C87.2821 60.7798 87.5181 60.8448 87.6841 60.8828C87.9526 60.9184 88.2108 61.0096 88.442 61.1506C88.6733 61.2917 88.8726 61.4794 89.0272 61.7019C89.1818 61.9243 89.2883 62.1766 89.3398 62.4425C89.3913 62.7084 89.3868 62.9822 89.3265 63.2463C89.2662 63.5104 89.1515 63.759 88.9896 63.9762C88.8278 64.1934 88.6224 64.3745 88.3866 64.5078C88.1508 64.6411 87.8897 64.7238 87.6202 64.7505C87.3506 64.7772 87.0784 64.7473 86.8211 64.6628L86.7931 64.6588C86.7801 64.6558 86.7681 64.6488 86.7551 64.6458C86.5951 64.6108 86.3941 64.5758 86.2541 64.5388C85.6616 64.3485 85.0806 64.1241 84.5141 63.8668C83.4211 63.426 82.2877 63.0928 81.1301 62.8718C80.7293 62.859 80.3395 63.0037 80.0441 63.2748C79.7687 63.2215 79.4924 63.1731 79.2151 63.1298C77.3394 69.0317 73.3597 74.0382 68.0331 77.1968Z" fill="black"/>
</svg>
