<svg width="144" height="144" viewBox="0 0 144 144" fill="none" xmlns="http://www.w3.org/2000/svg">
<path d="M71.0498 23.6802C44.9898 23.6802 23.7798 44.9002 23.7798 70.9502C23.7798 97.0002 44.9998 118.22 71.0498 118.22C97.0998 118.22 118.32 97.0002 118.32 70.9502C118.32 44.9002 97.0998 23.6802 71.0498 23.6802ZM70.9798 27.8802C71.788 27.9011 72.5561 28.238 73.1203 28.819C73.6845 29.4 74.0001 30.1791 73.9998 30.9902C73.9998 31.815 73.6721 32.606 73.0889 33.1893C72.5057 33.7725 71.7146 34.1002 70.8898 34.1002C70.065 34.1002 69.2739 33.7725 68.6907 33.1893C68.1074 32.606 67.7798 31.815 67.7798 30.9902C67.7796 30.5741 67.8629 30.1622 68.0248 29.7789C68.1867 29.3956 68.4239 29.0486 68.7223 28.7586C69.0207 28.4686 69.3742 28.2415 69.762 28.0906C70.1498 27.9397 70.5639 27.8681 70.9798 27.8802ZM78.0998 33.0002C83.5594 34.0228 88.731 36.2216 93.2554 39.4439C97.7798 42.6663 101.549 46.8348 104.3 51.6602L100.63 59.9402C99.9998 61.3702 100.65 63.0502 102.07 63.6902L109.13 66.8202C109.349 69.027 109.376 71.2487 109.21 73.4602H105.28C104.89 73.4602 104.73 73.7202 104.73 74.1002V75.9002C104.73 80.1402 102.34 81.0702 100.24 81.3002C98.2398 81.5302 96.0298 80.4602 95.7498 79.2402C94.5698 72.6102 92.6098 71.2002 89.5098 68.7502C93.3598 66.3102 97.3598 62.7002 97.3598 57.8802C97.3598 52.6702 93.7898 49.3902 91.3598 47.7802C87.9398 45.5302 84.1598 45.0802 83.1398 45.0802H42.5398C48.1538 38.8086 55.6789 34.5628 63.9498 33.0002L68.7398 38.0202C69.8198 39.1502 71.6098 39.2002 72.7398 38.1102L78.0998 33.0002ZM33.8998 56.0202C34.7089 56.0436 35.477 56.3816 36.0409 56.9623C36.6048 57.543 36.9201 58.3207 36.9198 59.1302C36.9198 59.955 36.5921 60.746 36.0089 61.3293C35.4256 61.9125 34.6346 62.2402 33.8098 62.2402C32.985 62.2402 32.1939 61.9125 31.6107 61.3293C31.0274 60.746 30.6998 59.955 30.6998 59.1302C30.6996 58.7141 30.7829 58.3022 30.9448 57.9189C31.1067 57.5356 31.3439 57.1886 31.6423 56.8986C31.9407 56.6086 32.2942 56.3815 32.682 56.2306C33.0698 56.0797 33.4839 56.0081 33.8998 56.0202ZM108.05 56.1602C108.859 56.1836 109.627 56.5216 110.191 57.1023C110.755 57.683 111.07 58.4607 111.07 59.2702C111.07 60.095 110.742 60.886 110.159 61.4693C109.576 62.0525 108.785 62.3802 107.96 62.3802C107.135 62.3802 106.344 62.0525 105.761 61.4693C105.177 60.886 104.85 60.095 104.85 59.2702C104.85 58.8541 104.933 58.4422 105.095 58.0589C105.257 57.6756 105.494 57.3286 105.792 57.0386C106.091 56.7486 106.444 56.5215 106.832 56.3706C107.22 56.2197 107.634 56.1481 108.05 56.1602ZM39.7598 56.6602H45.1798V81.1002H34.2398C32.8887 76.3556 32.4676 71.3946 32.9998 66.4902L39.6998 63.5102C41.1298 62.8702 41.7798 61.2002 41.1398 59.7702L39.7598 56.6602ZM62.3798 56.9202H75.2898C75.9598 56.9202 79.9998 57.6902 79.9998 60.7202C79.9998 63.2302 76.8998 64.1302 74.3498 64.1302H62.3698L62.3798 56.9202ZM62.3798 74.4802H72.2698C73.1698 74.4802 77.0998 74.7402 78.3498 79.7602C78.7398 81.3002 79.6098 86.3202 80.1998 87.9302C80.7898 89.7302 83.1798 93.3302 85.7298 93.3302H101.87C100.788 94.7787 99.6051 96.1488 98.3298 97.4302L91.7598 96.0202C90.2298 95.6902 88.7198 96.6702 88.3898 98.2002L86.8298 105.48C81.8133 107.753 76.3655 108.916 70.8584 108.89C65.3513 108.864 59.9147 107.65 54.9198 105.33L53.3598 98.0502C53.0298 96.5202 51.5298 95.5402 49.9998 95.8702L43.5698 97.2502C42.3766 96.0193 41.2674 94.7097 40.2498 93.3302H71.5198C71.8698 93.3302 72.1098 93.2702 72.1098 92.9402V81.8802C72.1098 81.5602 71.8698 81.4902 71.5198 81.4902H62.3698L62.3798 74.4802ZM47.9498 99.8102C48.7589 99.8336 49.527 100.172 50.0909 100.752C50.6548 101.333 50.9701 102.111 50.9698 102.92C50.9698 103.745 50.6421 104.536 50.0589 105.119C49.4756 105.703 48.6846 106.03 47.8598 106.03C47.035 106.03 46.2439 105.703 45.6607 105.119C45.0774 104.536 44.7498 103.745 44.7498 102.92C44.7496 102.504 44.8329 102.092 44.9948 101.709C45.1567 101.326 45.3939 100.979 45.6923 100.689C45.9907 100.399 46.3442 100.171 46.732 100.021C47.1198 99.8697 47.5339 99.7981 47.9498 99.8102ZM93.9998 99.9502C94.8089 99.9736 95.577 100.312 96.1409 100.892C96.7048 101.473 97.0201 102.251 97.0198 103.06C97.0198 103.885 96.6921 104.676 96.1089 105.259C95.5257 105.843 94.7346 106.17 93.9098 106.17C93.085 106.17 92.2939 105.843 91.7107 105.259C91.1274 104.676 90.7998 103.885 90.7998 103.06C90.7996 102.644 90.8829 102.232 91.0448 101.849C91.2067 101.466 91.4439 101.119 91.7423 100.829C92.0407 100.539 92.3942 100.311 92.782 100.161C93.1698 100.01 93.5839 99.9381 93.9998 99.9502Z" fill="black"/>
<path fill-rule="evenodd" clip-rule="evenodd" d="M115.68 70.9502C115.68 82.7868 110.978 94.1386 102.608 102.508C94.2382 110.878 82.8864 115.58 71.0498 115.58C59.2132 115.58 47.8614 110.878 39.4916 102.508C31.1219 94.1386 26.4198 82.7868 26.4198 70.9502C26.4198 59.1136 31.1219 47.7618 39.4916 39.392C47.8614 31.0223 59.2132 26.3202 71.0498 26.3202C82.8864 26.3202 94.2382 31.0223 102.608 39.392C110.978 47.7618 115.68 59.1136 115.68 70.9502ZM114.84 66.6402L121.8 70.9502L114.84 75.2602L120.82 80.8502L113.16 83.7202L117.94 90.3702L109.85 91.6902L113.25 99.1502L105.06 98.8602L106.94 106.84L98.9598 104.96L99.2498 113.15L91.7898 109.75L90.4698 117.84L83.8198 113.06L80.9498 120.72L75.3598 114.74L71.0498 121.7L66.7398 114.74L61.1498 120.72L58.2798 113.06L51.6298 117.84L50.3098 109.75L42.8498 113.15L43.1398 104.96L35.1598 106.84L37.0398 98.8602L28.8498 99.1502L32.2498 91.6902L24.1598 90.3702L28.9398 83.7202L21.2798 80.8502L27.2598 75.2602L20.2998 70.9502L27.2598 66.6402L21.2798 61.0502L28.9398 58.1802L24.1598 51.5302L32.2498 50.2102L28.8498 42.7502L37.0398 43.0402L35.1598 35.0602L43.1398 36.9402L42.8498 28.7502L50.3098 32.1502L51.6298 24.0602L58.2798 28.8402L61.1498 21.1802L66.7398 27.1602L71.0498 20.2002L75.3598 27.1602L80.9498 21.1802L83.8198 28.8402L90.4698 24.0602L91.7898 32.1502L99.2498 28.7502L98.9598 36.9402L106.94 35.0602L105.06 43.0402L113.25 42.7502L109.85 50.2102L117.94 51.5302L113.16 58.1802L120.82 61.0502L114.84 66.6402Z" fill="black" stroke="black" stroke-width="3" stroke-linecap="round" stroke-linejoin="round"/>
</svg>
